# File created by Blade
# Date/Time:  Tue Jan 27 20:12:02 2015
# Frame Rate: 120.000 fps
#------------------------------------------------------
:FULLY-SPECIFIED
:DEGREES
2242
root 8.810038 32.097392 -2.355541 -2.573816 -11.575892 -2.971209
Spine 2.011426 11.495629 -0.445187
Head 20.959755 -7.197109 2.097961
LeftShoulder -17.411714 2.685493 27.193097
LeftArm -17.245191 -36.552057 -66.926671
LeftForeArm -0.724614 -0.000000 99.085818
LeftHand 14.860962 -0.000000 4.154706
LeftHandThumb1 -26.253704 0.000000 33.147579
RightShoulder -19.311177 -24.043763 -23.210964
RightArm 10.277087 -40.850720 88.107254
RightForeArm -23.993393 -0.000000 102.970847
RightHand 18.687562 -0.000000 1.381221
RightHandThumb1 -24.326973 -0.000000 -32.862282
LeftUpLeg 12.423430 6.080302 -6.818220
LeftLeg -4.522764 -0.000000 0.000000
LeftFoot -18.960338 19.950044 -15.807402
LeftToeBase 20.950940 -0.000000 -0.000000
RightUpLeg -8.957470 -70.308489 -15.987230
RightLeg 67.484434 -0.000000 -0.000000
RightFoot 3.294925 -25.228639 32.998772
RightToeBase 19.185767 -0.000000 -0.000000
2243
root 8.816912 32.100426 -2.363263 -2.545955 -11.558788 -3.010794
Spine 2.032213 11.472631 -0.351793
Head 20.960802 -7.159483 2.106394
LeftShoulder -17.427586 2.704962 27.161721
LeftArm -17.198581 -36.499484 -67.020643
LeftForeArm -0.719982 0.000000 99.086813
LeftHand 14.839390 0.000000 4.165028
LeftHandThumb1 -26.253704 0.000000 33.147579
RightShoulder -19.308875 -24.017378 -23.227594
RightArm 10.286853 -40.831209 88.054181
RightForeArm -24.010286 -0.000000 102.953031
RightHand 18.669043 0.000000 1.392681
RightHandThumb1 -24.326973 -0.000000 -32.862282
LeftUpLeg 12.387641 6.085639 -6.795011
LeftLeg -4.526262 -0.000000 0.000000
LeftFoot -18.935738 19.954050 -15.777331
LeftToeBase 20.997704 -0.000000 -0.000000
RightUpLeg -9.165351 -69.837291 -15.848061
RightLeg 67.430205 -0.000000 -0.000000
RightFoot 2.600996 -25.470090 32.571210
RightToeBase 18.931700 -0.000000 -0.000000
2244
root 8.821667 32.105034 -2.371374 -2.509977 -11.534002 -3.066526
Spine 2.045019 11.441782 -0.247115
Head 20.961267 -7.115922 2.124050
LeftShoulder -17.441099 2.686551 27.130170
LeftArm -17.202683 -36.439780 -67.067829
LeftForeArm -0.704791 -0.000000 99.090467
LeftHand 14.826377 -0.000000 4.191620
LeftHandThumb1 -26.253704 0.000000 33.147579
RightShoulder -19.289605 -23.990510 -23.241394
RightArm 10.259825 -40.795881 88.032590
RightForeArm -24.033053 0.000000 102.949318
RightHand 18.687785 -0.000000 1.401713
RightHandThumb1 -24.326973 -0.000000 -32.862282
LeftUpLeg 12.351751 6.133015 -6.735680
LeftLeg -4.538860 -0.000000 0.000000
LeftFoot -18.853355 19.917211 -15.654052
LeftToeBase 20.891024 -0.000000 -0.000000
RightUpLeg -9.314211 -69.381157 -15.724753
RightLeg 67.349433 -0.000000 -0.000000
RightFoot 1.947101 -25.675932 32.226531
RightToeBase 17.949941 -0.000000 -0.000000
2245
root 8.826752 32.109216 -2.379299 -2.477665 -11.462978 -3.116763
Spine 2.051866 11.369713 -0.155124
Head 20.993334 -7.095786 2.141245
LeftShoulder -17.448923 2.731960 27.099406
LeftArm -17.134080 -36.404377 -67.164821
LeftForeArm -0.716226 -0.000000 99.077820
LeftHand 14.796473 -0.000000 4.199708
LeftHandThumb1 -26.253704 0.000000 33.147579
RightShoulder -19.272829 -24.048001 -23.232828
RightArm 10.333038 -40.753523 87.955963
RightForeArm -24.017863 -0.000000 102.947324
RightHand 18.686909 -0.000000 1.386357
RightHandThumb1 -24.326973 -0.000000 -32.862282
LeftUpLeg 12.303216 6.113640 -6.697899
LeftLeg -4.529247 -0.000000 0.000000
LeftFoot -18.841261 19.899087 -15.629562
LeftToeBase 20.933193 -0.000000 -0.000000
RightUpLeg -9.386154 -68.979841 -15.697835
RightLeg 67.303890 -0.000000 -0.000000
RightFoot 1.301963 -25.964297 32.044247
RightToeBase 17.230759 -0.000000 -0.000000
2246
root 8.831848 32.113326 -2.384745 -2.449110 -11.388046 -3.150788
Spine 2.061180 11.303266 -0.092819
Head 20.982445 -7.097689 2.198401
LeftShoulder -17.482600 2.758702 27.082669
LeftArm -17.058000 -36.338243 -67.255431
LeftForeArm -0.709112 -0.000000 99.051057
LeftHand 14.839827 -0.000000 4.234444
LeftHandThumb1 -26.253704 0.000000 33.147579
RightShoulder -19.282776 -24.054611 -23.218982
RightArm 10.333177 -40.728727 87.916913
RightForeArm -23.982842 0.000000 102.953609
RightHand 18.688289 -0.000000 1.425707
RightHandThumb1 -24.326973 -0.000000 -32.862282
LeftUpLeg 12.259391 6.110470 -6.673327
LeftLeg -4.521929 -0.000000 0.000000
LeftFoot -18.792211 19.908288 -15.540956
LeftToeBase 20.888497 -0.000000 -0.000000
RightUpLeg -9.390424 -68.517941 -15.767593
RightLeg 67.298476 -0.000000 -0.000000
RightFoot 0.524364 -26.171478 32.546365
RightToeBase 16.968879 -0.000000 -0.000000
2247
root 8.838402 32.117554 -2.392519 -2.413349 -11.282252 -3.184929
Spine 2.063389 11.225338 -0.025114
Head 20.991960 -7.144534 2.224941
LeftShoulder -17.487857 2.752129 27.064177
LeftArm -17.016506 -36.286930 -67.323811
LeftForeArm -0.705839 -0.000000 99.029617
LeftHand 14.833298 0.000000 4.256400
LeftHandThumb1 -26.253704 0.000000 33.147579
RightShoulder -19.283322 -24.069112 -23.216234
RightArm 10.305250 -40.685199 87.917270
RightForeArm -23.984050 -0.000000 102.966151
RightHand 18.679812 -0.000000 1.396553
RightHandThumb1 -24.326973 -0.000000 -32.862282
LeftUpLeg 12.197819 6.034580 -6.655493
LeftLeg -4.502608 -0.000000 0.000000
LeftFoot -18.764059 19.908841 -15.506154
LeftToeBase 20.975759 -0.000000 -0.000000
RightUpLeg -9.341987 -68.022783 -15.902508
RightLeg 67.324039 -0.000000 -0.000000
RightFoot 0.077291 -26.229563 33.159806
RightToeBase 16.959983 -0.000000 -0.000000
2248
root 8.845795 32.121164 -2.400070 -2.368898 -11.163734 -3.213489
Spine 2.048137 11.143428 0.032264
Head 20.999890 -7.200577 2.254166
LeftShoulder -17.479116 2.747103 27.048731
LeftArm -16.980463 -36.249975 -67.383154
LeftForeArm -0.699706 0.000000 99.005170
LeftHand 14.842987 0.000000 4.296913
LeftHandThumb1 -26.253704 0.000000 33.147579
RightShoulder -19.274238 -24.073058 -23.227603
RightArm 10.231797 -40.626474 87.953319
RightForeArm -23.967745 -0.000000 102.982562
RightHand 18.688792 -0.000000 1.401384
RightHandThumb1 -24.326973 -0.000000 -32.862282
LeftUpLeg 12.123437 5.982290 -6.638963
LeftLeg -4.479136 -0.000000 0.000000
LeftFoot -18.720877 19.878019 -15.436778
LeftToeBase 20.835299 -0.000000 -0.000000
RightUpLeg -9.291560 -67.443583 -16.049808
RightLeg 67.374051 -0.000000 -0.000000
RightFoot -0.109427 -26.117591 34.133240
RightToeBase 17.228962 -0.000000 -0.000000
